<mxfile host="Electron" agent="Mozilla/5.0 (Windows NT 10.0; Win64; x64) AppleWebKit/537.36 (KHTML, like Gecko) draw.io/28.1.2 Chrome/138.0.7204.243 Electron/37.4.0 Safari/537.36" version="28.1.2">
  <diagram name="ページ1" id="Th_FbpuYaA8UgCCkZX4E">
    <mxGraphModel dx="1025" dy="516" grid="0" gridSize="10" guides="1" tooltips="1" connect="1" arrows="1" fold="1" page="1" pageScale="1" pageWidth="827" pageHeight="1169" math="0" shadow="0">
      <root>
        <mxCell id="0" />
        <mxCell id="1" parent="0" />
        <mxCell id="u15gTBCA14xIpoxDGnui-1" value="" style="rounded=0;whiteSpace=wrap;html=1;" vertex="1" parent="1">
          <mxGeometry x="370" y="747" width="327" height="391" as="geometry" />
        </mxCell>
        <mxCell id="u15gTBCA14xIpoxDGnui-2" value="&lt;font style=&quot;font-size: 14px;&quot;&gt;システム内部&lt;/font&gt;" style="text;html=1;align=center;verticalAlign=middle;whiteSpace=wrap;rounded=0;" vertex="1" parent="1">
          <mxGeometry x="472.5" y="747" width="122" height="30" as="geometry" />
        </mxCell>
        <mxCell id="u15gTBCA14xIpoxDGnui-3" value="学生情報を登録する" style="ellipse;whiteSpace=wrap;html=1;" vertex="1" parent="1">
          <mxGeometry x="438" y="806" width="191" height="80" as="geometry" />
        </mxCell>
        <mxCell id="u15gTBCA14xIpoxDGnui-4" value="学生論文を登録する" style="ellipse;whiteSpace=wrap;html=1;" vertex="1" parent="1">
          <mxGeometry x="438" y="987" width="191" height="80" as="geometry" />
        </mxCell>
        <mxCell id="u15gTBCA14xIpoxDGnui-5" value="Actor" style="shape=umlActor;verticalLabelPosition=bottom;verticalAlign=top;html=1;outlineConnect=0;" vertex="1" parent="1">
          <mxGeometry x="157" y="882" width="46" height="97" as="geometry" />
        </mxCell>
        <mxCell id="u15gTBCA14xIpoxDGnui-6" value="" style="endArrow=none;html=1;rounded=0;entryX=0;entryY=0.5;entryDx=0;entryDy=0;exitX=1;exitY=0.3333333333333333;exitDx=0;exitDy=0;exitPerimeter=0;" edge="1" parent="1" source="u15gTBCA14xIpoxDGnui-5" target="u15gTBCA14xIpoxDGnui-3">
          <mxGeometry width="50" height="50" relative="1" as="geometry">
            <mxPoint x="215" y="930" as="sourcePoint" />
            <mxPoint x="551" y="846" as="targetPoint" />
          </mxGeometry>
        </mxCell>
        <mxCell id="u15gTBCA14xIpoxDGnui-7" value="" style="endArrow=none;html=1;rounded=0;entryX=0;entryY=0.5;entryDx=0;entryDy=0;exitX=1;exitY=0.3333333333333333;exitDx=0;exitDy=0;exitPerimeter=0;" edge="1" parent="1" source="u15gTBCA14xIpoxDGnui-5" target="u15gTBCA14xIpoxDGnui-4">
          <mxGeometry width="50" height="50" relative="1" as="geometry">
            <mxPoint x="212" y="932" as="sourcePoint" />
            <mxPoint x="551" y="846" as="targetPoint" />
          </mxGeometry>
        </mxCell>
        <mxCell id="u15gTBCA14xIpoxDGnui-8" value="Web学術論文" style="text;html=1;align=center;verticalAlign=middle;whiteSpace=wrap;rounded=0;" vertex="1" parent="1">
          <mxGeometry x="177" y="743" width="109" height="30" as="geometry" />
        </mxCell>
      </root>
    </mxGraphModel>
  </diagram>
</mxfile>
